<svg width="59" height="59" viewBox="0 0 59 59" fill="none" xmlns="http://www.w3.org/2000/svg">
<rect width="59" height="59" fill="#6EBBD3"/>
<g clip-path="url(#clip0)">
<path d="M28.2976 23.9994L20.2876 32.0096C20.1021 32.1949 20 32.4422 20 32.7059C20 32.9696 20.1021 33.2169 20.2876 33.4022L20.8773 33.9921C21.2616 34.3759 21.8862 34.3759 22.2699 33.9921L28.9963 27.2657L35.7301 33.9996C35.9155 34.1848 36.1627 34.2871 36.4263 34.2871C36.6901 34.2871 36.9373 34.1848 37.1228 33.9995L37.7124 33.4097C37.8979 33.2242 38 32.9771 38 32.7134C38 32.4497 37.8979 32.2023 37.7124 32.0171L29.695 23.9994C29.509 23.8137 29.2607 23.7117 28.9967 23.7123C28.7317 23.7117 28.4835 23.8137 28.2976 23.9994Z" fill="white"/>
</g>
<defs>
<clipPath id="clip0">
<rect width="18" height="18" fill="white" transform="translate(20 38) rotate(-90)"/>
</clipPath>
</defs>
</svg>
